<svg width="193" height="193" viewBox="0 0 193 193" fill="none" xmlns="http://www.w3.org/2000/svg">
<rect width="193" height="193" rx="12" fill="#2D47FF"/>
<path d="M81.5199 86.6222H63.7642C63.5275 84.7992 63.0421 83.1539 62.3082 81.6861C61.5743 80.2183 60.6037 78.9635 59.3963 77.9219C58.1889 76.8802 56.7566 76.0871 55.0994 75.5426C53.4659 74.9744 51.6548 74.6903 49.6662 74.6903C46.1387 74.6903 43.0966 75.5544 40.5398 77.2827C38.0066 79.0109 36.0535 81.5085 34.6804 84.7756C33.331 88.0426 32.6562 91.9962 32.6562 96.6364C32.6562 101.466 33.3428 105.514 34.7159 108.781C36.1127 112.025 38.0658 114.475 40.5753 116.132C43.1084 117.766 46.1032 118.582 49.5597 118.582C51.5009 118.582 53.2647 118.334 54.8509 117.837C56.4607 117.339 57.8693 116.617 59.0767 115.67C60.3078 114.7 61.3139 113.528 62.0952 112.155C62.9001 110.758 63.4564 109.184 63.7642 107.432L81.5199 107.538C81.2121 110.758 80.277 113.93 78.7145 117.055C77.1757 120.18 75.0568 123.033 72.358 125.614C69.6591 128.17 66.3684 130.206 62.4858 131.722C58.6269 133.237 54.1998 133.994 49.2045 133.994C42.6231 133.994 36.7282 132.55 31.5199 129.662C26.3352 126.75 22.2396 122.512 19.233 116.949C16.2263 111.385 14.723 104.615 14.723 96.6364C14.723 88.6345 16.25 81.8518 19.304 76.2884C22.358 70.7249 26.4891 66.4991 31.6974 63.6108C36.9058 60.7225 42.7415 59.2784 49.2045 59.2784C53.608 59.2784 57.6799 59.8939 61.4205 61.125C65.161 62.3324 68.4517 64.108 71.2926 66.4517C74.1335 68.7718 76.4418 71.6245 78.2173 75.0099C79.9929 78.3954 81.0938 82.2661 81.5199 86.6222ZM130.89 82.0767C130.653 79.4725 129.599 77.4484 127.729 76.0043C125.882 74.5365 123.243 73.8026 119.81 73.8026C117.537 73.8026 115.643 74.0985 114.128 74.6903C112.613 75.2822 111.477 76.099 110.719 77.1406C109.962 78.1586 109.571 79.3305 109.547 80.6562C109.5 81.7453 109.713 82.7041 110.186 83.5327C110.684 84.3613 111.394 85.0952 112.317 85.7344C113.264 86.3499 114.4 86.8944 115.726 87.3679C117.052 87.8414 118.543 88.2557 120.201 88.6108L126.451 90.0312C130.049 90.8125 133.221 91.8542 135.968 93.1562C138.738 94.4583 141.058 96.009 142.928 97.8082C144.822 99.6075 146.254 101.679 147.225 104.023C148.195 106.366 148.693 108.994 148.716 111.906C148.693 116.499 147.533 120.441 145.236 123.732C142.94 127.022 139.637 129.544 135.328 131.295C131.043 133.047 125.871 133.923 119.81 133.923C113.726 133.923 108.423 133.012 103.901 131.189C99.3791 129.366 95.8635 126.596 93.354 122.879C90.8446 119.162 89.5543 114.463 89.4833 108.781H106.316C106.458 111.125 107.085 113.078 108.198 114.641C109.31 116.203 110.837 117.387 112.779 118.192C114.744 118.997 117.016 119.399 119.597 119.399C121.964 119.399 123.977 119.08 125.634 118.44C127.315 117.801 128.605 116.913 129.505 115.777C130.404 114.641 130.866 113.339 130.89 111.871C130.866 110.498 130.44 109.326 129.611 108.355C128.783 107.361 127.504 106.509 125.776 105.798C124.071 105.064 121.893 104.39 119.242 103.774L111.642 101.999C105.345 100.554 100.385 98.2225 96.7631 95.0028C93.141 91.7595 91.3417 87.3797 91.3654 81.8636C91.3417 77.3655 92.5491 73.4238 94.9876 70.0384C97.426 66.6529 100.8 64.0133 105.108 62.1193C109.417 60.2254 114.329 59.2784 119.846 59.2784C125.48 59.2784 130.369 60.2372 134.512 62.1548C138.678 64.0488 141.91 66.7121 144.206 70.1449C146.503 73.5777 147.675 77.5549 147.722 82.0767H130.89ZM167.36 134.03C164.803 134.03 162.613 133.13 160.79 131.331C158.991 129.532 158.103 127.354 158.127 124.797C158.103 122.287 158.991 120.145 160.79 118.369C162.613 116.57 164.803 115.67 167.36 115.67C169.775 115.67 171.905 116.57 173.752 118.369C175.622 120.145 176.569 122.287 176.593 124.797C176.569 126.501 176.119 128.052 175.243 129.449C174.391 130.846 173.266 131.958 171.87 132.787C170.497 133.616 168.993 134.03 167.36 134.03Z" fill="white"/>
</svg>
