<svg width="24" height="24" viewBox="0 0 24 24" fill="none" xmlns="http://www.w3.org/2000/svg">
<path d="M9 3.23633C8.68967 3.23633 8.3836 3.30854 8.106 3.44726L3.553 5.72426C3.38692 5.80725 3.24722 5.93484 3.14956 6.09273C3.05189 6.25063 3.0001 6.4326 3 6.61826V19.3813C2.99958 19.5519 3.04284 19.7198 3.12565 19.869C3.20846 20.0182 3.32808 20.1438 3.47312 20.2337C3.61816 20.3236 3.78379 20.3749 3.95426 20.3827C4.12473 20.3905 4.29436 20.3545 4.447 20.2783L8.106 18.4483C8.3836 18.3095 8.68967 18.2373 9 18.2373C9.31033 18.2373 9.6164 18.3095 9.894 18.4483L14.106 20.5543C14.3836 20.693 14.6897 20.7652 15 20.7652C15.3103 20.7652 15.6164 20.693 15.894 20.5543L20.447 18.2773C20.6131 18.1943 20.7528 18.0667 20.8505 17.9088C20.9481 17.7509 20.9999 17.5689 21 17.3833V4.61926C21.0003 4.4487 20.9569 4.28091 20.874 4.13184C20.7911 3.98277 20.6715 3.85738 20.5265 3.76759C20.3814 3.6778 20.2159 3.62659 20.0455 3.61883C19.8751 3.61107 19.7056 3.64702 19.553 3.72326L15.894 5.55326C15.6164 5.69198 15.3103 5.76419 15 5.76419C14.6897 5.76419 14.3836 5.69198 14.106 5.55326L9.894 3.44726C9.6164 3.30854 9.31033 3.23633 9 3.23633ZM15 5.76419L15 20.7642M9 3.23633L9 18.2363" stroke="#5A6CFF" stroke-width="2" stroke-linecap="round" stroke-linejoin="round"/>
</svg>
